<svg width="28" height="28" viewBox="0 0 28 28" fill="none" xmlns="http://www.w3.org/2000/svg">
<path d="M24.1111 1H3.88889C2.2934 1 1 2.2934 1 3.88889V24.1111C1 25.7066 2.2934 27 3.88889 27H24.1111C25.7066 27 27 25.7066 27 24.1111V3.88889C27 2.2934 25.7066 1 24.1111 1Z" stroke="black" stroke-width="2" stroke-linecap="round" stroke-linejoin="round"/>
<path d="M8.94444 11.1111C10.1411 11.1111 11.1111 10.1411 11.1111 8.94445C11.1111 7.74783 10.1411 6.77778 8.94444 6.77778C7.74782 6.77778 6.77777 7.74783 6.77777 8.94445C6.77777 10.1411 7.74782 11.1111 8.94444 11.1111Z" stroke="black" stroke-width="2" stroke-linecap="round" stroke-linejoin="round"/>
<path d="M27 18.3333L19.7778 11.1111L3.88892 27" stroke="black" stroke-width="2" stroke-linecap="round" stroke-linejoin="round"/>
</svg>
